<?xml version="1.0" encoding="UTF-8" standalone="no"?>
<!DOCTYPE svg PUBLIC "-//W3C//DTD SVG 1.1//EN" "http://www.w3.org/Graphics/SVG/1.1/DTD/svg11.dtd">
<svg xmlns="http://www.w3.org/2000/svg" xmlns:dc="http://purl.org/dc/elements/1.1/" version="1.1" xmlns:xl="http://www.w3.org/1999/xlink" viewBox="199.596 131.0132 706.3477 187.7361" width="706.3477" height="187.7361">
  <defs/>
  <metadata> Produced by OmniGraffle 7.11.4 
    <dc:date>2019-10-22 07:51:42 +0000</dc:date>
  </metadata>
  <g id="Canvas_2" stroke-opacity="1" stroke="none" stroke-dasharray="none" fill="none" fill-opacity="1">
    <title>Canvas 2</title>
    <g id="Canvas_2: Layer 1">
      <title>Layer 1</title>
      <g id="Graphic_2">
        <path d="M 383.9952 135.6885 L 404.2432 135.6885 L 383.6232 242.9885 L 363.3802 242.9885 Z" fill="#333333"/>
      </g>
      <g id="Graphic_3">
        <path d="M 427.6732 197.0236 L 418.8362 242.9886 L 398.9822 242.9886 L 414.2242 163.7136 L 434.0672 163.7136 L 432.4952 171.9266 M 478.3312 197.0236 L 469.5082 242.9886 L 449.5872 242.9886 L 456.2382 208.3586 C 458.0512 198.9266 459.2812 192.5306 459.9042 189.3226" fill="#333333"/>
      </g>
      <g id="Graphic_4">
        <path d="M 517.9782 163.7132 L 530.6322 163.7132 L 527.3922 180.5702 L 514.6752 180.5702 L 502.6812 242.9892 L 482.8352 242.9892 L 498.3307 162.14173 Z" fill="#333333"/>
      </g>
      <g id="Graphic_5">
        <path d="M 574.4272 180.442 C 568.2592 180.442 562.7152 182.584 557.7882 186.868 C 552.8602 191.147 549.7532 196.629 548.4712 203.302 C 547.1522 210.179 548.1082 215.732 551.3482 219.997 C 554.5792 224.253 559.3142 226.368 565.5282 226.368 C 571.7432 226.368 577.3322 224.217 582.2872 219.914 C 587.2472 215.612 590.3772 210.078 591.6822 203.302 C 592.9742 196.536 592.0042 191.023 588.7682 186.799 C 585.5142 182.566 580.7522 180.442 574.4272 180.442 M 577.7092 161.766 C 585.1972 161.766 591.8662 163.628 597.7312 167.36 C 603.6052 171.099 607.7702 176.151 610.2252 182.556 C 612.7022 188.955 613.2122 195.866 611.7972 203.266 C 610.3582 210.74 607.1632 217.717 602.1902 224.207 C 597.2162 230.707 591.1862 235.781 584.0702 239.44 C 576.9552 243.108 569.5272 244.928 561.8052 244.928 C 550.4342 244.928 541.4982 240.893 535.0082 232.83 C 528.5172 224.759 526.3802 214.959 528.5932 203.413 C 530.9632 191.051 537.4902 180.764 548.1632 172.518 C 557.5122 165.347 567.3672 161.766 577.7092 161.766" fill="#333333"/>
      </g>
      <g id="Graphic_6">
        <path d="M 612.5687 225.8621 C 623.9317 227.1491 638.4377 227.1491 638.4377 227.1491 C 641.0667 227.1491 643.3107 226.5331 645.1487 225.2641 C 647.0147 224.0141 648.0907 222.5531 648.4027 220.9071 C 648.9957 217.8551 646.6657 214.8761 641.4157 211.9711 L 635.3217 208.6251 C 623.6837 202.1811 618.7877 194.1211 620.6407 184.4361 C 621.8537 178.1781 625.2917 172.8481 630.9917 168.4151 C 636.6907 163.9871 643.3187 161.7661 650.8667 161.7661 C 669.2807 161.7661 675.8987 163.7131 675.8987 163.7131 L 672.6077 180.8281 C 658.8097 179.7911 647.5207 179.7911 647.5207 179.7911 C 645.2727 179.7911 643.4207 180.2631 641.9677 181.2191 C 640.5247 182.1611 639.6697 183.3291 639.3937 184.7351 C 639.1827 185.8021 639.4027 186.7851 640.0377 187.6771 C 640.6807 188.5781 642.4187 189.7961 645.2917 191.3401 L 651.8967 194.9831 C 658.8647 198.7521 663.4197 202.5941 665.5387 206.5201 C 667.6627 210.4451 668.2137 215.0421 667.2027 220.3191 C 665.8607 227.3421 662.1377 233.1891 656.0607 237.8861 C 649.9797 242.5841 642.5887 244.9281 633.8737 244.9281 C 622.3047 244.9281 609.2777 242.9891 609.2777 242.9891 Z" fill="#333333"/>
      </g>
      <g id="Graphic_7">
        <path d="M 744.3683 193.4224 C 743.8763 189.0834 741.9323 185.5534 738.5633 182.8324 C 735.1793 180.1204 730.9283 178.7594 725.7843 178.7594 C 720.1913 178.7594 714.9873 180.2924 710.1893 183.3374 C 707.1643 185.2454 704.0753 188.6094 700.8853 193.4224 Z M 761.1543 208.9844 L 696.9963 208.9844 C 696.8403 214.6284 698.4493 219.0964 701.8233 222.4234 C 705.1973 225.7514 710.0003 227.4064 716.2373 227.4064 C 723.6843 227.4064 730.5883 224.8234 736.9313 219.6204 L 752.2093 227.4984 C 746.8913 233.4274 741.0403 237.8134 734.6513 240.6624 C 728.2803 243.5034 721.0773 244.9284 713.0523 244.9284 C 700.6053 244.9284 691.2093 241.0214 684.8853 233.1884 C 678.5653 225.3564 676.5333 215.5564 678.7903 203.7804 C 681.1113 191.7124 686.9583 181.6924 696.2933 173.7224 C 705.6423 165.7544 716.2103 161.7664 727.9953 161.7664 C 740.5123 161.7664 749.9253 165.7494 756.2363 173.7034 C 762.5523 181.6554 764.4553 192.1624 761.9453 205.2234 Z" fill="#333333"/>
      </g>
      <g id="Graphic_8">
        <path d="M 672.6081 180.828 Z" fill="#333333"/>
      </g>
      <g id="Graphic_9">
        <path d="M 885.5627 163.7132 L 881.7657 183.4662 C 879.8907 193.1462 875.5057 204.4882 870.6797 210.9792 C 866.1837 217.0462 858.7747 222.4512 852.5557 222.4512 L 863.6927 163.7132 L 843.3127 163.7132 L 828.3367 242.9892 L 848.4507 242.9892 C 856.1817 242.9892 863.7567 240.3682 871.1757 235.1282 C 878.5857 229.8982 885.0487 222.6542 890.5547 213.3592 C 896.0527 204.0752 899.8307 194.0932 901.8897 183.4162 L 905.9437 163.7132 Z" fill="#333333"/>
      </g>
      <g id="Graphic_10">
        <path d="M 819.5852 180.442 C 813.3572 180.442 807.8642 182.584 802.9412 186.868 C 798.0182 191.147 794.9062 196.629 793.6332 203.302 L 773.7442 203.413 C 776.1252 191.051 782.6482 180.764 793.3212 172.518 C 802.6702 165.347 812.6302 161.766 822.8672 161.766 C 833.1032 161.766 833.1992 163.713 833.1992 163.713 L 829.9082 180.828 C 825.8182 180.442 819.5852 180.442 819.5852 180.442 Z" fill="#333333"/>
      </g>
      <g id="Graphic_11">
        <path d="M 794.2171 199.6161 L 792.0981 210.9601 L 785.9571 242.9891 L 766.1001 242.9891 L 781.3241 163.7131 L 798.4601 163.7131 Z" fill="#333333"/>
      </g>
      <g id="Graphic_12">
        <path d="M 539.8112 148.5102 C 533.9782 148.5102 527.4262 148.7602 522.8132 152.7662 C 518.2012 156.7792 516.7072 163.6642 515.5122 169.9142 L 498.3307 162.14173 C 500.0937 152.93573 505.0572 145.1732 513.0122 139.0282 C 519.9782 133.6892 527.4052 131.0132 535.0262 131.0132 C 542.6562 131.0132 542.7392 132.4682 542.7392 132.4682 Z" fill="#333333"/>
      </g>
      <g id="Graphic_13">
        <path d="M 458.4675 197.0236 C 460.0995 188.5226 454.5305 181.6366 446.0335 181.6366 C 437.5375 181.6366 429.3185 188.5226 427.6915 197.0236 L 407.8195 197.0236 C 411.5675 177.5556 430.3805 161.7666 449.8535 161.7666 C 469.3285 161.7666 482.0795 177.5556 478.3315 197.0236 Z" fill="#333333"/>
      </g>
      <g id="Graphic_16">
        <path d="M 395.259 316.9644 C 404.119 317.5804 413.128 317.9384 422.273 318.0124 C 421.011 309.0674 419.482 300.2514 417.683 291.6194 C 414.998 278.6754 411.71 266.1274 407.791 254.0844 C 408.09 266.6604 406.364 279.2174 403.392 291.3894 C 323.866 288.9624 258.242 265.6494 223.004 230.1914 C 249.328 190.6924 284.22 164.4504 322.699 148.7974 C 338.817 156.8984 353.891 166.6294 368.367 177.2914 C 358.432 164.5954 347.198 153.4764 334.581 144.2884 C 332.412 142.7004 330.182 141.1784 327.923 139.7154 C 323.324 141.2734 318.739 142.9414 314.17 144.7324 C 275.601 159.8474 238.388 183.2874 210.41 215.1614 C 206.624 219.4734 203.023 223.9404 199.596 228.5554 C 203.586 234.5494 208.208 240.3224 213.459 245.8564 C 250.279 284.6784 316.825 311.4574 395.259 316.9644 Z" fill="#e63946"/>
      </g>
      <g id="Graphic_18">
        <path d="M 708.334 304.833 L 708.334 283.107 L 680.645 283.107 L 680.645 304.833 L 674.752 304.833 L 674.752 257.477 L 680.645 257.477 L 680.645 277.854 L 708.334 277.854 L 708.334 257.477 L 714.228 257.477 L 714.228 304.833 Z" fill="#333333"/>
      </g>
      <g id="Graphic_19">
        <path d="M 751.4316 287.6514 C 751.4316 280.6934 747.3846 274.4454 740.0716 274.4454 C 732.7586 274.4454 728.6406 280.6934 728.6406 287.6514 C 728.6406 294.6804 732.7586 300.9284 740.0716 300.9284 C 747.3846 300.9284 751.4316 294.6804 751.4316 287.6514 M 723.1026 287.6514 C 723.1026 277.7114 729.6346 269.6884 740.0716 269.6884 C 750.5076 269.6884 757.0396 277.7114 757.0396 287.6514 C 757.0396 297.5914 750.5076 305.6854 740.0716 305.6854 C 729.6346 305.6854 723.1026 297.5914 723.1026 287.6514" fill="#333333"/>
      </g>
      <g id="Graphic_20">
        <path d="M 762.7197 300.2891 L 765.4897 296.4551 C 767.7607 299.0821 772.0917 301.3541 776.7777 301.3541 C 782.0317 301.3541 784.8717 298.8691 784.8717 295.4611 C 784.8717 287.1541 763.6427 292.2661 763.6427 279.5571 C 763.6427 274.2321 768.2577 269.6881 776.4227 269.6881 C 782.2447 269.6881 786.3627 271.8891 789.1317 274.6581 L 786.6467 278.3501 C 784.5877 275.8651 780.8247 274.0191 776.4227 274.0191 C 771.7377 274.0191 768.8257 276.3621 768.8257 279.4151 C 768.8257 286.9411 790.0547 281.9711 790.0547 295.3191 C 790.0547 301.0701 785.4397 305.6851 776.5647 305.6851 C 770.9557 305.6851 766.1987 303.9811 762.7197 300.2891 Z" fill="#333333"/>
      </g>
      <g id="Graphic_21">
        <path d="M 799.7812 297.6621 L 799.7812 275.2261 L 794.1012 275.2261 L 794.1012 270.5401 L 799.7812 270.5401 L 799.7812 261.1681 L 805.1062 261.1681 L 805.1062 270.5401 L 812.0642 270.5401 L 812.0642 275.2261 L 805.1062 275.2261 L 805.1062 296.5261 C 805.1062 299.0821 806.2422 300.9281 808.5852 300.9281 C 810.0762 300.9281 811.4962 300.2891 812.2062 299.5081 L 813.7682 303.4841 C 812.4192 304.7621 810.5022 305.6851 807.3792 305.6851 C 802.3382 305.6851 799.7812 302.7741 799.7812 297.6621 Z" fill="#333333"/>
      </g>
      <g id="Graphic_22">
        <path d="M 819.59 270.541 L 824.914 270.541 L 824.914 304.833 L 819.59 304.833 Z M 818.667 262.091 C 818.667 260.104 820.3 258.471 822.217 258.471 C 824.204 258.471 825.838 260.104 825.838 262.091 C 825.838 264.08 824.204 265.642 822.217 265.642 C 820.3 265.642 818.667 264.08 818.667 262.091" fill="#333333"/>
      </g>
      <g id="Graphic_23">
        <path d="M 858.71 304.833 L 858.71 282.397 C 858.71 276.362 855.657 274.445 851.042 274.445 C 846.854 274.445 842.877 277.001 840.889 279.771 L 840.889 304.833 L 835.564 304.833 L 835.564 270.541 L 840.889 270.541 L 840.889 275.51 C 843.303 272.67 847.989 269.688 853.101 269.688 C 860.272 269.688 864.035 273.31 864.035 280.764 L 864.035 304.833 Z" fill="#333333"/>
      </g>
      <g id="Graphic_24">
        <path d="M 899.4639 294.9643 L 899.4639 279.9833 C 897.6179 277.0013 893.4999 274.4453 889.2399 274.4453 C 882.3539 274.4453 878.2349 279.9123 878.2349 287.5093 C 878.2349 295.0353 882.3539 300.5733 889.2399 300.5733 C 893.4999 300.5733 897.6179 297.9463 899.4639 294.9643 M 874.6139 313.6363 L 877.3129 309.6613 C 880.1519 313.0683 883.5609 314.3463 888.4589 314.3463 C 894.1389 314.3463 899.4639 311.5783 899.4639 304.0523 L 899.4639 299.1523 C 896.9799 302.6313 892.7899 305.2583 887.9619 305.2583 C 879.0169 305.2583 872.6969 298.5853 872.6969 287.5093 C 872.6969 276.5043 878.9449 269.6883 887.9619 269.6883 C 892.5769 269.6883 896.6949 271.9603 899.4639 275.7233 L 899.4639 270.5403 L 904.7889 270.5403 L 904.7889 303.8393 C 904.7889 315.1983 896.8369 318.7493 888.4589 318.7493 C 882.6369 318.7493 878.6609 317.6123 874.6139 313.6363" fill="#333333"/>
      </g>
    </g>
  </g>
</svg>
